<svg width="86" height="80" viewBox="0 0 86 80" fill="none" xmlns="http://www.w3.org/2000/svg">
<g clip-path="url(#clip0_1190_2176)">
<path d="M46.4493 7.54478L42.4937 0.857263C41.8181 -0.285754 40.1634 -0.285754 39.4878 0.857263L9.74515 51.1446C9.05612 52.3091 9.89558 53.7799 11.2481 53.7799H19.7744C20.3976 53.7799 20.9752 53.4468 21.2868 52.9068L46.4587 9.30565C46.7743 8.76033 46.7703 8.08607 46.4493 7.54344V7.54478Z" fill="white"/>
<path d="M64.9253 38.201L59.2062 28.5304C58.9161 28.0401 58.3882 27.7393 57.8187 27.7393H39.1799C38.6037 27.7393 38.0718 28.0468 37.7844 28.5451L32.2009 38.2158C31.5804 39.2903 32.3554 40.6335 33.5964 40.6335H63.5378C64.7856 40.6335 65.5606 39.2755 64.9253 38.201Z" fill="white"/>
<path d="M56.2058 23.4585L49.7735 12.5844C49.1462 11.5233 47.607 11.5314 46.9905 12.5992L40.7126 23.4733C40.0921 24.5478 40.8671 25.891 42.1082 25.891H54.8184C56.0661 25.891 56.8411 24.533 56.2058 23.4585Z" fill="white"/>
<path d="M29.1923 43.3279L24.5544 51.3612C23.9339 52.4357 24.7089 53.7789 25.95 53.7789H71.2099C72.4577 53.7789 73.2327 52.421 72.5974 51.3464L67.8454 43.3131C67.5552 42.8228 67.0274 42.522 66.4579 42.522H30.5878C30.0116 42.522 29.4797 42.8296 29.1923 43.3279Z" fill="white"/>
</g>
<path d="M6.31799 73.46H3.21232L7.94444 59.7522H11.6793L16.4047 73.46H13.299L9.8654 62.8846H9.75831L6.31799 73.46ZM6.12388 68.0719H13.4597V70.3342H6.12388V68.0719ZM26.5215 59.7522H29.4197V68.6542C29.4197 69.6537 29.181 70.5283 28.7035 71.278C28.2305 72.0276 27.5679 72.6122 26.7156 73.0316C25.8634 73.4466 24.8705 73.6541 23.7371 73.6541C22.5993 73.6541 21.6042 73.4466 20.752 73.0316C19.8997 72.6122 19.2371 72.0276 18.7641 71.278C18.2911 70.5283 18.0546 69.6537 18.0546 68.6542V59.7522H20.9528V68.4066C20.9528 68.9286 21.0665 69.3927 21.2941 69.7988C21.5261 70.2048 21.8519 70.5239 22.2713 70.7559C22.6908 70.9879 23.1794 71.1039 23.7371 71.1039C24.2994 71.1039 24.788 70.9879 25.203 70.7559C25.6224 70.5239 25.9459 70.2048 26.1735 69.7988C26.4055 69.3927 26.5215 68.9286 26.5215 68.4066V59.7522ZM31.8042 73.46V59.7522H37.2123C38.2475 59.7522 39.131 59.9374 39.8628 60.3077C40.5991 60.6736 41.1591 61.1935 41.5428 61.8673C41.931 62.5366 42.1251 63.3242 42.1251 64.23C42.1251 65.1403 41.9288 65.9234 41.5361 66.5793C41.1435 67.2308 40.5745 67.7305 39.8294 68.0786C39.0886 68.4266 38.1917 68.6007 37.1387 68.6007H33.5176V66.2714H36.6701C37.2235 66.2714 37.6831 66.1956 38.049 66.0439C38.4149 65.8921 38.687 65.6646 38.8655 65.3611C39.0485 65.0577 39.14 64.6807 39.14 64.23C39.14 63.7748 39.0485 63.3911 38.8655 63.0787C38.687 62.7664 38.4126 62.5299 38.0423 62.3693C37.6764 62.2042 37.2145 62.1216 36.6568 62.1216H34.7023V73.46H31.8042ZM39.2069 67.2219L42.6137 73.46H39.4144L36.0811 67.2219H39.2069ZM44.1733 73.46V59.7522H53.4099V62.1417H47.0714V65.408H52.9347V67.7975H47.0714V71.0705H53.4367V73.46H44.1733ZM58.1906 59.7522L61.5037 70.1669H61.6309L64.9508 59.7522H68.1635L63.4381 73.46H59.7033L54.9711 59.7522H58.1906ZM81.637 66.6061C81.637 68.1009 81.3536 69.3726 80.787 70.4212C80.2247 71.4698 79.4572 72.2708 78.4845 72.8241C77.5162 73.3729 76.4274 73.6474 75.2182 73.6474C74 73.6474 72.9068 73.3707 71.9385 72.8174C70.9702 72.2641 70.2049 71.4631 69.6427 70.4145C69.0805 69.3659 68.7994 68.0964 68.7994 66.6061C68.7994 65.1113 69.0805 63.8395 69.6427 62.7909C70.2049 61.7423 70.9702 60.9436 71.9385 60.3948C72.9068 59.8415 74 59.5648 75.2182 59.5648C76.4274 59.5648 77.5162 59.8415 78.4845 60.3948C79.4572 60.9436 80.2247 61.7423 80.787 62.7909C81.3536 63.8395 81.637 65.1113 81.637 66.6061ZM78.6987 66.6061C78.6987 65.6378 78.5536 64.8212 78.2636 64.1564C77.978 63.4915 77.5742 62.9873 77.0521 62.6437C76.5301 62.3001 75.9187 62.1283 75.2182 62.1283C74.5176 62.1283 73.9063 62.3001 73.3842 62.6437C72.8622 62.9873 72.4561 63.4915 72.1661 64.1564C71.8805 64.8212 71.7377 65.6378 71.7377 66.6061C71.7377 67.5744 71.8805 68.3909 72.1661 69.0558C72.4561 69.7207 72.8622 70.2249 73.3842 70.5685C73.9063 70.9121 74.5176 71.0839 75.2182 71.0839C75.9187 71.0839 76.5301 70.9121 77.0521 70.5685C77.5742 70.2249 77.978 69.7207 78.2636 69.0558C78.5536 68.3909 78.6987 67.5744 78.6987 66.6061Z" fill="white"/>
<defs>
<clipPath id="clip0_1190_2176">
<rect width="63.3253" height="52.9654" fill="white" transform="translate(9.49902)"/>
</clipPath>
</defs>
</svg>
