<svg width="86" height="80" viewBox="0 0 86 80" fill="none" xmlns="http://www.w3.org/2000/svg">
<g clip-path="url(#clip0_1176_1645)">
<path d="M46.4493 7.54478L42.4937 0.857263C41.8181 -0.285754 40.1634 -0.285754 39.4878 0.857263L9.74515 51.1446C9.05612 52.3091 9.89558 53.7799 11.2481 53.7799H19.7744C20.3976 53.7799 20.9752 53.4468 21.2868 52.9068L46.4587 9.30565C46.7743 8.76033 46.7703 8.08607 46.4493 7.54344V7.54478Z" fill="black"/>
<path d="M64.9253 38.2008L59.2062 28.5302C58.9161 28.0399 58.3882 27.7391 57.8187 27.7391H39.1799C38.6037 27.7391 38.0718 28.0467 37.7844 28.545L32.2009 38.2156C31.5804 39.2901 32.3554 40.6333 33.5964 40.6333H63.5378C64.7856 40.6333 65.5606 39.2754 64.9253 38.2008Z" fill="black"/>
<path d="M56.2058 23.4585L49.7735 12.5844C49.1462 11.5233 47.607 11.5314 46.9905 12.5992L40.7126 23.4733C40.0921 24.5478 40.8671 25.891 42.1082 25.891H54.8184C56.0661 25.891 56.8411 24.533 56.2058 23.4585Z" fill="black"/>
<path d="M29.1923 43.3277L24.5544 51.3611C23.9339 52.4356 24.7089 53.7788 25.95 53.7788H71.2099C72.4577 53.7788 73.2327 52.4208 72.5974 51.3463L67.8454 43.313C67.5552 42.8227 67.0274 42.5219 66.4579 42.5219H30.5878C30.0116 42.5219 29.4797 42.8294 29.1923 43.3277Z" fill="black"/>
</g>
<path d="M6.31799 73.46H3.21232L7.94444 59.7523H11.6793L16.4047 73.46H13.299L9.8654 62.8847H9.75831L6.31799 73.46ZM6.12388 68.072H13.4597V70.3343H6.12388V68.072ZM26.5215 59.7523H29.4197V68.6543C29.4197 69.6538 29.181 70.5284 28.7035 71.278C28.2305 72.0277 27.5679 72.6122 26.7156 73.0317C25.8634 73.4466 24.8705 73.6541 23.7371 73.6541C22.5993 73.6541 21.6042 73.4466 20.752 73.0317C19.8997 72.6122 19.2371 72.0277 18.7641 71.278C18.2911 70.5284 18.0546 69.6538 18.0546 68.6543V59.7523H20.9528V68.4066C20.9528 68.9287 21.0665 69.3928 21.2941 69.7988C21.5261 70.2049 21.8519 70.5239 22.2713 70.756C22.6908 70.988 23.1794 71.104 23.7371 71.104C24.2994 71.104 24.788 70.988 25.203 70.756C25.6224 70.5239 25.9459 70.2049 26.1735 69.7988C26.4055 69.3928 26.5215 68.9287 26.5215 68.4066V59.7523ZM31.8042 73.46V59.7523H37.2123C38.2475 59.7523 39.131 59.9374 39.8628 60.3078C40.5991 60.6737 41.1591 61.1935 41.5428 61.8673C41.931 62.5367 42.1251 63.3242 42.1251 64.23C42.1251 65.1403 41.9288 65.9234 41.5361 66.5794C41.1435 67.2308 40.5745 67.7306 39.8294 68.0787C39.0886 68.4267 38.1917 68.6007 37.1387 68.6007H33.5176V66.2715H36.6701C37.2235 66.2715 37.6831 66.1956 38.049 66.0439C38.4149 65.8922 38.687 65.6646 38.8655 65.3612C39.0485 65.0578 39.14 64.6807 39.14 64.23C39.14 63.7749 39.0485 63.3912 38.8655 63.0788C38.687 62.7665 38.4126 62.53 38.0423 62.3693C37.6764 62.2042 37.2145 62.1217 36.6568 62.1217H34.7023V73.46H31.8042ZM39.2069 67.2219L42.6137 73.46H39.4144L36.0811 67.2219H39.2069ZM44.1733 73.46V59.7523H53.4099V62.1418H47.0714V65.4081H52.9347V67.7975H47.0714V71.0705H53.4367V73.46H44.1733ZM58.1906 59.7523L61.5037 70.1669H61.6309L64.9508 59.7523H68.1635L63.4381 73.46H59.7033L54.9711 59.7523H58.1906ZM81.637 66.6061C81.637 68.101 81.3536 69.3727 80.787 70.4213C80.2247 71.4699 79.4572 72.2709 78.4845 72.8242C77.5162 73.373 76.4274 73.6474 75.2182 73.6474C74 73.6474 72.9068 73.3708 71.9385 72.8175C70.9702 72.2642 70.2049 71.4632 69.6427 70.4146C69.0805 69.366 68.7994 68.0965 68.7994 66.6061C68.7994 65.1113 69.0805 63.8396 69.6427 62.791C70.2049 61.7424 70.9702 60.9437 71.9385 60.3948C72.9068 59.8415 74 59.5649 75.2182 59.5649C76.4274 59.5649 77.5162 59.8415 78.4845 60.3948C79.4572 60.9437 80.2247 61.7424 80.787 62.791C81.3536 63.8396 81.637 65.1113 81.637 66.6061ZM78.6987 66.6061C78.6987 65.6379 78.5536 64.8213 78.2636 64.1564C77.978 63.4916 77.5742 62.9873 77.0521 62.6437C76.5301 62.3002 75.9187 62.1284 75.2182 62.1284C74.5176 62.1284 73.9063 62.3002 73.3842 62.6437C72.8622 62.9873 72.4561 63.4916 72.1661 64.1564C71.8805 64.8213 71.7377 65.6379 71.7377 66.6061C71.7377 67.5744 71.8805 68.391 72.1661 69.0559C72.4561 69.7207 72.8622 70.225 73.3842 70.5685C73.9063 70.9121 74.5176 71.0839 75.2182 71.0839C75.9187 71.0839 76.5301 70.9121 77.0521 70.5685C77.5742 70.225 77.978 69.7207 78.2636 69.0559C78.5536 68.391 78.6987 67.5744 78.6987 66.6061Z" fill="black"/>
<defs>
<clipPath id="clip0_1176_1645">
<rect width="63.3253" height="52.9654" fill="white" transform="translate(9.49902)"/>
</clipPath>
</defs>
</svg>
