<svg width="48" height="48" viewBox="0 0 48 48" fill="none" xmlns="http://www.w3.org/2000/svg">
<g clip-path="url(#clip0_1190_2252)">
<path d="M48.2002 0H0.200195V48H48.2002V0Z" fill="#121212"/>
<path d="M27.5 11.8002L25 7.6002C24.6 6.9002 23.5 6.9002 23.1 7.6002L4.29996 39.4002C3.89996 40.1002 4.39996 41.1002 5.19996 41.1002H10.6C11 41.1002 11.4 40.9002 11.6 40.5002L27.5 13.0002C27.7 12.6002 27.7 12.2002 27.5 11.8002Z" fill="white"/>
<path d="M39.2002 31.2001L35.6002 25.1001C35.4002 24.8001 35.1002 24.6001 34.7002 24.6001H22.9002C22.5002 24.6001 22.2002 24.8001 22.0002 25.1001L18.5002 31.2001C18.1002 31.9001 18.6002 32.7001 19.4002 32.7001H38.3002C39.1002 32.7001 39.6002 31.9001 39.2002 31.2001Z" fill="white"/>
<path d="M33.7 21.9001L29.6 15.0001C29.2 14.3001 28.2 14.3001 27.8 15.0001L23.8 21.9001C23.4 22.6001 23.9 23.4001 24.7 23.4001H32.7C33.6 23.4001 34.1 22.5001 33.7 21.9001Z" fill="white"/>
<path d="M16.6004 34.4004L13.7004 39.5004C13.3004 40.2004 13.8004 41.0004 14.6004 41.0004H43.2004C44.0004 41.0004 44.5004 40.1004 44.1004 39.5004L41.1004 34.4004C40.9004 34.1004 40.6004 33.9004 40.2004 33.9004H17.5004C17.1004 33.9004 16.8004 34.1004 16.6004 34.4004Z" fill="white"/>
</g>
<defs>
<clipPath id="clip0_1190_2252">
<rect width="48" height="48" rx="8" fill="white"/>
</clipPath>
</defs>
</svg>
